# xmcd CD database file
# Copyright 1993-1996 (C) Ti Kan
#
# Track frame offsets:
#    150
#    13750
#    30465
#    45442
#    70702
#    82527
#    99467
#    110127
#    127385
#    143757
#    155600
#    168812
#    186032
#    201725
#    216952
#    232132
#    250125
#    267555
#    280740
#
# Disc length: 4233 seconds
#
# Revision: 0
# Processed by: cddbd v1.4b41PL1 Copyright (c) Steve Scherf et al.
# Submitted via: MyCDplayer 2.1.4  (wjohn@fix.net)
#
DISCID=14108713
DTITLE=Diana Ross - Anthology (Volume One)
DYEAR=1900
DGENRE=
TTITLE0=Reach Out and Touch (Somebody's Hand)
TTITLE1=Ain't No Mountain High Enough
TTITLE2=Remember Me
TTITLE3=Reach Out I'll Be There
TTITLE4=Surrender
TTITLE5=I'm Still Waiting
TTITLE6=Good Morning Heartache
TTITLE7=Touch Me In The Morning
TTITLE8=You're A Speceal Part Of Me
TTITLE9=Last Time I Saw Him
TTITLE10=My Mistake (Was To Love You)
TTITLE11=Sleepin'
TTITLE12=Sorry Doesn't Always Make It Right
TTITLE13=Theme From Mahogany (Do You Know ...)
TTITLE14=I Thought It Took A Little Time
TTITLE15=One Love In My Lifetime
TTITLE16=Baby I Love Your Way
TTITLE17=Young Mothers
TTITLE18=Brown Baby - Save The Children
EXTD=
EXTT0=
EXTT1=
EXTT2=
EXTT3=
EXTT4=
EXTT5=
EXTT6=
EXTT7=
EXTT8=
EXTT9=
EXTT10=
EXTT11=
EXTT12=
EXTT13=
EXTT14=
EXTT15=
EXTT16=
EXTT17=
EXTT18=
PLAYORDER=
